<svg width="100" height="100" viewBox="0 0 100 100" fill="none" xmlns="http://www.w3.org/2000/svg">
<rect width="100" height="100" rx="50" fill="#4F0C5A"/>
<path d="M14.904 72V27.2H34.168C37.1547 27.2 39.8853 27.8827 42.36 29.248C44.8773 30.6133 46.8827 32.512 48.376 34.944C49.8693 37.3333 50.616 40.1067 50.616 43.264C50.616 46.4213 49.8693 49.2373 48.376 51.712C46.8827 54.144 44.8987 56.0427 42.424 57.408C39.9493 58.7733 37.1973 59.456 34.168 59.456H25.656V72H14.904ZM25.656 50.432H32.952C34.232 50.432 35.384 50.1547 36.408 49.6C37.432 49.0453 38.264 48.2347 38.904 47.168C39.544 46.1013 39.864 44.8213 39.864 43.328C39.864 41.8347 39.544 40.5547 38.904 39.488C38.264 38.4213 37.4107 37.6107 36.344 37.056C35.32 36.4587 34.1893 36.16 32.952 36.16H25.656V50.432ZM55.5155 72V40.448C55.5155 37.9733 56.1128 35.7333 57.3075 33.728C58.5448 31.7227 60.1875 30.144 62.2355 28.992C64.3262 27.7973 66.6515 27.2 69.2115 27.2H85.9155V36.16H70.5555C69.3608 36.16 68.3368 36.5867 67.4835 37.44C66.6728 38.2933 66.2675 39.3387 66.2675 40.576V47.04H83.7395V55.936H66.2675V72H55.5155Z" fill="white"/>
</svg>
