<svg xmlns="http://www.w3.org/2000/svg" width="32" height="32" fill="none"><g clip-path="url(#a)"><path fill="#fff" d="M16 0c-4.342 0-4.888.02-6.594.096C7.7.176 6.538.444 5.52.84a7.834 7.834 0 0 0-2.834 1.846A7.854 7.854 0 0 0 .84 5.52C.444 6.536.174 7.7.096 9.4.02 11.11 0 11.654 0 16.002c0 4.344.02 4.888.096 6.594.08 1.704.348 2.866.744 3.884a7.858 7.858 0 0 0 1.846 2.834 7.808 7.808 0 0 0 2.832 1.846c1.02.396 2.18.666 3.884.744C11.11 31.98 11.654 32 16 32s4.888-.02 6.596-.096c1.702-.08 2.868-.348 3.886-.744a7.831 7.831 0 0 0 2.832-1.846 7.858 7.858 0 0 0 1.846-2.834c.394-1.018.664-2.18.744-3.884C31.98 20.89 32 20.346 32 16s-.02-4.89-.096-6.598c-.08-1.702-.35-2.866-.744-3.882a7.853 7.853 0 0 0-1.846-2.834A7.822 7.822 0 0 0 26.48.84C25.46.444 24.296.174 22.594.096 20.886.02 20.344 0 15.996 0h.006H16Zm-1.434 2.884h1.436c4.272 0 4.778.014 6.464.092 1.56.07 2.408.332 2.972.55.746.29 1.28.638 1.84 1.198.56.56.906 1.092 1.196 1.84.22.562.48 1.41.55 2.97.078 1.686.094 2.192.094 6.462s-.016 4.778-.094 6.464c-.07 1.56-.332 2.406-.55 2.97a4.94 4.94 0 0 1-1.198 1.838c-.56.56-1.092.906-1.84 1.196-.56.22-1.408.48-2.97.552-1.686.076-2.192.094-6.464.094s-4.78-.018-6.466-.094c-1.56-.072-2.406-.332-2.97-.552a4.956 4.956 0 0 1-1.84-1.196 4.96 4.96 0 0 1-1.2-1.84c-.218-.562-.48-1.41-.55-2.97-.076-1.686-.092-2.192-.092-6.466 0-4.272.016-4.776.092-6.462.072-1.56.332-2.408.552-2.972.29-.746.638-1.28 1.198-1.84a4.943 4.943 0 0 1 1.84-1.196c.564-.22 1.41-.48 2.97-.552 1.476-.068 2.048-.088 5.03-.09v.004Zm9.976 2.656a1.92 1.92 0 1 0 0 3.841 1.92 1.92 0 0 0 0-3.841Zm-8.54 2.244a8.218 8.218 0 1 0-.256 16.433 8.218 8.218 0 0 0 .256-16.433Zm0 2.882a5.334 5.334 0 1 1 0 10.668 5.334 5.334 0 0 1 0-10.668Z"/></g><defs><clipPath id="a"><path fill="#fff" d="M0 0h32v32H0z"/></clipPath></defs></svg>